<svg width="10" height="10" viewBox="0 0 10 10" fill="currentColor" xmlns="http://www.w3.org/2000/svg">
<g id="x-circle" clip-path="url(#clip0_5389_31878)">
<path id="Vector" d="M5 0C4.0111 0 3.0444 0.293245 2.22215 0.842652C1.3999 1.39206 0.759043 2.17295 0.380605 3.08658C0.00216642 4.00021 -0.0968502 5.00555 0.0960758 5.97545C0.289002 6.94535 0.765206 7.83627 1.46447 8.53553C2.16373 9.23479 3.05465 9.711 4.02455 9.90392C4.99445 10.0969 5.99979 9.99783 6.91342 9.6194C7.82705 9.24096 8.60794 8.60009 9.15735 7.77785C9.70675 6.9556 10 5.9889 10 5C9.99854 3.67436 9.47129 2.40344 8.53393 1.46607C7.59656 0.528707 6.32564 0.0014558 5 0ZM6.8535 6.1465C6.90126 6.19262 6.93935 6.24779 6.96555 6.3088C6.99176 6.3698 7.00555 6.43541 7.00613 6.5018C7.0067 6.56819 6.99405 6.63403 6.96891 6.69548C6.94377 6.75692 6.90664 6.81275 6.8597 6.8597C6.81275 6.90664 6.75693 6.94377 6.69548 6.96891C6.63403 6.99405 6.56819 7.0067 6.5018 7.00612C6.43541 7.00555 6.3698 6.99175 6.3088 6.96555C6.2478 6.93934 6.19262 6.90125 6.1465 6.8535L5 5.707L3.8535 6.8535C3.7592 6.94458 3.6329 6.99497 3.5018 6.99383C3.3707 6.9927 3.2453 6.94011 3.15259 6.84741C3.05989 6.7547 3.0073 6.6293 3.00616 6.4982C3.00503 6.3671 3.05542 6.2408 3.1465 6.1465L4.293 5L3.1465 3.8535C3.05542 3.7592 3.00503 3.6329 3.00616 3.5018C3.0073 3.3707 3.05989 3.24529 3.15259 3.15259C3.2453 3.05989 3.3707 3.0073 3.5018 3.00616C3.6329 3.00502 3.7592 3.05542 3.8535 3.1465L5 4.293L6.1465 3.1465C6.2408 3.05542 6.3671 3.00502 6.4982 3.00616C6.6293 3.0073 6.75471 3.05989 6.84741 3.15259C6.94011 3.24529 6.9927 3.3707 6.99384 3.5018C6.99498 3.6329 6.94458 3.7592 6.8535 3.8535L5.707 5L6.8535 6.1465Z"/>
</g>
<defs>
<clipPath id="clip0_5389_31878">
<rect width="10" height="10" fill="white"/>
</clipPath>
</defs>
</svg>
