<svg width="20" height="20" viewBox="0 0 20 20" fill="currentColor" xmlns="http://www.w3.org/2000/svg">
<g clip-path="url(#clip0_1989_192743)">
<path d="M10 20C8.02219 20 6.08879 19.4135 4.4443 18.3147C2.79981 17.2159 1.51809 15.6541 0.761209 13.8268C0.00433284 11.9996 -0.1937 9.98891 0.192152 8.0491C0.578004 6.10929 1.53041 4.32746 2.92894 2.92894C4.32746 1.53041 6.10929 0.578004 8.0491 0.192152C9.98891 -0.1937 11.9996 0.00433284 13.8268 0.761209C15.6541 1.51809 17.2159 2.79981 18.3147 4.4443C19.4135 6.08879 20 8.02219 20 10C19.9971 12.6513 18.9426 15.1931 17.0679 17.0679C15.1931 18.9426 12.6513 19.9971 10 20ZM10 2C8.41775 2 6.87103 2.4692 5.55544 3.34825C4.23985 4.2273 3.21447 5.47673 2.60897 6.93854C2.00347 8.40034 1.84504 10.0089 2.15372 11.5607C2.4624 13.1126 3.22433 14.538 4.34315 15.6569C5.46197 16.7757 6.88743 17.5376 8.43928 17.8463C9.99113 18.155 11.5997 17.9965 13.0615 17.391C14.5233 16.7855 15.7727 15.7602 16.6518 14.4446C17.5308 13.129 18 11.5823 18 10C17.9976 7.879 17.154 5.84555 15.6542 4.34578C14.1544 2.84601 12.121 2.00239 10 2Z" />
<path d="M11.414 10L13.707 7.707C13.8892 7.5184 13.99 7.2658 13.9877 7.0036C13.9854 6.74141 13.8802 6.49059 13.6948 6.30518C13.5094 6.11978 13.2586 6.01461 12.9964 6.01233C12.7342 6.01005 12.4816 6.11085 12.293 6.293L10 8.586L7.707 6.293C7.5184 6.11085 7.2658 6.01005 7.0036 6.01233C6.74141 6.01461 6.49059 6.11978 6.30518 6.30518C6.11978 6.49059 6.01461 6.74141 6.01233 7.0036C6.01005 7.2658 6.11085 7.5184 6.293 7.707L8.586 10L6.293 12.293C6.19749 12.3852 6.12131 12.4956 6.0689 12.6176C6.01649 12.7396 5.98891 12.8708 5.98775 13.0036C5.9866 13.1364 6.0119 13.2681 6.06218 13.391C6.11246 13.5139 6.18672 13.6255 6.28061 13.7194C6.3745 13.8133 6.48615 13.8875 6.60905 13.9378C6.73195 13.9881 6.86362 14.0134 6.9964 14.0123C7.12918 14.0111 7.2604 13.9835 7.38241 13.9311C7.50441 13.8787 7.61476 13.8025 7.707 13.707L10 11.414L12.293 13.707C12.4816 13.8892 12.7342 13.99 12.9964 13.9877C13.2586 13.9854 13.5094 13.8802 13.6948 13.6948C13.8802 13.5094 13.9854 13.2586 13.9877 12.9964C13.99 12.7342 13.8892 12.4816 13.707 12.293L11.414 10Z" />
</g>
<defs>
<clipPath id="clip0_1989_192743">
<rect width="20" height="20" fill="white"/>
</clipPath>
</defs>
</svg>
